# Blender v2.91.0 OBJ File: 'untitled (2).blend'
# www.blender.org
o Cube.001_Cube.000
v -0.155856 2.295681 -0.820042
v 0.011351 2.155632 -0.872294
v -0.109724 2.134090 -0.776965
v 0.197406 2.295681 -0.848369
v 0.233988 2.155632 -0.664387
v 0.150186 2.134577 -0.797807
v 0.193287 2.295681 -0.493998
v 0.026080 2.155632 -0.441750
v 0.147156 2.134090 -0.537079
v -0.159974 2.295681 -0.465672
v -0.196556 2.155632 -0.649657
v -0.112755 2.129674 -0.516237
v 0.018716 2.124851 -0.657021
v 0.075705 2.110069 -0.718048
v 0.069189 2.108125 -0.609888
v 0.018920 2.443954 -0.657238
v 0.091189 2.475540 -0.736916
v -0.060753 2.477057 -0.731843
v -0.196556 2.419202 -0.649655
v -0.112755 2.459783 -0.516235
v 0.026080 2.419202 -0.441748
v 0.147156 2.457272 -0.537077
v 0.233988 2.419202 -0.664385
v 0.150186 2.451723 -0.797805
v 0.011351 2.419202 -0.872293
v -0.109724 2.457272 -0.776963
v -0.231678 2.295681 -0.648455
v 0.269110 2.295681 -0.665587
v -0.040190 2.108503 -0.593942
v -0.037833 2.110148 -0.709830
v -0.057987 2.479521 -0.577172
v 0.106077 2.474906 -0.576051
v 0.010150 2.295681 -0.907415
v 0.027282 2.295681 -0.406626
v 0.012119 2.510610 -0.666511
v 0.020032 2.445387 -0.668900
v 0.014351 2.438457 -0.664427
v 0.028831 2.510610 -0.667852
v 0.030478 2.445387 -0.659145
v 0.026546 2.433460 -0.665406
v 0.028636 2.510610 -0.651088
v 0.020723 2.445387 -0.648699
v 0.026404 2.438457 -0.653172
v 0.011925 2.510610 -0.649749
v 0.010277 2.445387 -0.658454
v 0.014209 2.433460 -0.652194
v 0.020378 2.424695 -0.658800
v 0.024993 2.579627 -0.685686
v 0.007297 2.579590 -0.684334
v 0.014779 2.593830 -0.681855
v 0.000860 2.578928 -0.674761
v 0.005043 2.597789 -0.673409
v 0.014725 2.584405 -0.661815
v 0.023294 2.585910 -0.669396
v 0.030500 2.570044 -0.671522
v 0.016635 2.564568 -0.684469
v 0.006536 2.510610 -0.658327
v 0.034219 2.510610 -0.659274
v 0.019904 2.510610 -0.672642
v 0.020851 2.510610 -0.644958
vn -0.5378 -0.3571 -0.7637
vn 0.8096 -0.3782 -0.4489
vn 0.5378 -0.3571 0.7637
vn -0.8181 -0.3674 0.4424
vn -0.2853 -0.9578 -0.0344
vn 0.0221 0.9224 0.3857
vn -0.8339 0.3670 0.4122
vn 0.5072 0.3542 0.7857
vn 0.8209 0.3851 -0.4217
vn -0.5072 0.3542 -0.7857
vn -0.8861 0.2481 -0.3915
vn 0.8861 0.2481 0.3915
vn -0.3851 0.9228 0.0133
vn 0.0534 -0.9573 0.2842
vn 0.8922 -0.2204 0.3942
vn -0.8922 -0.2204 -0.3942
vn -0.2868 -0.9580 -0.0070
vn -0.2843 -0.9586 -0.0130
vn -0.2822 -0.9592 -0.0194
vn 0.0231 0.9185 0.3947
vn 0.0214 0.9189 0.3939
vn 0.0220 0.9188 0.3942
vn 0.2905 0.2591 -0.9211
vn -0.2905 0.2591 0.9211
vn 0.3807 0.9242 -0.0316
vn -0.0206 -0.9611 -0.2753
vn -0.2926 -0.2302 0.9281
vn 0.2926 -0.2302 -0.9281
vn -0.5864 -0.0415 -0.8090
vn 0.8795 -0.0411 -0.4742
vn 0.5864 -0.0415 0.8090
vn -0.8795 -0.0411 0.4742
vn 0.8656 -0.4600 0.1979
vn -0.0750 0.2091 -0.9750
vn -0.7467 0.1187 0.6545
vn 0.6228 0.2263 0.7489
vn 0.9190 -0.0500 -0.3911
vn -0.4218 -0.2543 -0.8703
vn -0.8086 -0.2001 -0.5532
vn -0.8073 -0.2001 -0.5551
vn -0.8094 -0.2001 -0.5521
vn 0.8147 0.1655 0.5557
vn -0.8166 0.2194 -0.5339
vn 0.2303 -0.3874 0.8927
vn 0.8252 -0.0462 0.5629
vn -0.8252 -0.0462 -0.5629
vn -0.9064 -0.3874 -0.1687
vn 0.3629 0.7461 0.5583
vn 0.4666 -0.1623 -0.8695
vn -0.4668 0.1599 0.8698
vn 0.7828 0.6037 -0.1512
vn -0.2567 -0.4599 -0.8500
vn -0.4723 -0.0496 0.8801
vn 0.4722 -0.0496 -0.8801
vn 0.2853 -0.9580 -0.0280
vn 0.2590 -0.9658 -0.0084
vn -0.0456 -0.9558 -0.2903
vn 0.0175 -0.9679 0.2508
vn 0.0286 0.9234 -0.3827
vn -0.3652 0.9302 0.0375
vn 0.4009 0.9159 -0.0218
vn -0.0037 0.9241 -0.3822
vn -0.0149 0.9262 -0.3767
vn -0.0168 0.9236 -0.3830
vn -0.4543 -0.2204 -0.8632
vn 0.9059 -0.2302 -0.3554
vn 0.4543 -0.2204 0.8632
vn -0.9059 -0.2302 0.3554
vn -0.8991 0.2591 0.3527
vn 0.4512 0.2481 0.8572
vn 0.8991 0.2591 -0.3527
vn -0.4512 0.2481 -0.8572
vn -0.8185 0.3542 -0.4523
vn 0.8185 0.3542 0.4523
vn -0.3801 0.9240 -0.0423
vn -0.3958 0.9183 -0.0076
vn 0.0317 -0.9586 0.2830
vn 0.0260 -0.9581 0.2853
vn 0.0263 -0.9583 0.2847
vn 0.0376 -0.9591 0.2806
vn 0.7987 -0.3571 0.4843
vn -0.7987 -0.3571 -0.4843
vn -0.2865 -0.9581 -0.0065
vn -0.2872 -0.9573 -0.0339
vn 0.0741 0.9273 0.3670
vn 0.0210 0.9190 0.3937
vn 0.3647 0.3851 -0.8478
vn -0.3542 0.3670 0.8602
vn 0.3972 0.9177 -0.0035
vn 0.3694 0.9292 -0.0055
vn -0.0534 -0.9573 -0.2842
vn 0.0084 -0.9580 -0.2865
vn -0.3854 -0.3674 0.8464
vn 0.3925 -0.3782 -0.8384
vn -0.6180 -0.0462 -0.7848
vn 0.8463 -0.0500 -0.5303
vn 0.8460 -0.0562 -0.5302
vn 0.8458 -0.0496 -0.5313
vn 0.6180 -0.0462 0.7848
vn -0.8457 -0.0496 0.5313
vn 0.9063 -0.3874 0.1688
vn -0.0761 -0.0383 -0.9964
vn -0.8454 0.0575 0.5311
vn 0.6028 0.2249 0.7655
vn 0.8454 -0.0565 -0.5311
vn -0.6055 -0.2052 -0.7689
vn -0.8066 -0.2001 -0.5562
vn 0.6846 0.2177 0.6956
vn -0.5034 0.3980 -0.7669
vn 0.2567 -0.4600 0.8500
vn 0.8472 -0.0415 0.5297
vn -0.8472 -0.0415 -0.5297
vn -0.8656 -0.4600 -0.1980
vn 0.5061 0.8415 0.1890
vn 0.2720 -0.2266 -0.9352
vn -0.6712 0.1444 0.7271
vn 0.9050 0.4201 -0.0676
vn -0.2303 -0.3874 -0.8927
vn -0.4130 -0.0411 0.9098
vn 0.4129 -0.0411 -0.9098
vn 0.2872 -0.9573 0.0339
vn 0.2768 -0.9609 -0.0006
vn -0.0153 0.9217 -0.3876
vn -0.0040 0.9240 -0.3823
s 1
f 1//1 2//1 3//1
f 4//2 5//2 6//2
f 7//3 8//3 9//3
f 10//4 11//4 12//4
f 13//5 14//5 15//5
f 16//6 17//6 18//6
f 19//7 10//7 20//7
f 21//8 7//8 22//8
f 23//9 4//9 24//9
f 25//10 1//10 26//10
f 19//11 1//11 27//11
f 23//12 7//12 28//12
f 18//13 26//13 19//13
f 15//14 9//14 8//14
f 7//15 5//15 28//15
f 1//16 11//16 27//16
f 29//17 11//18 30//19
f 31//20 21//21 32//22
f 25//23 4//23 33//23
f 21//24 10//24 34//24
f 23//25 17//25 32//25
f 2//26 14//26 30//26
f 10//27 8//27 34//27
f 4//28 2//28 33//28
f 35//29 36//29 37//29
f 38//30 39//30 40//30
f 41//31 42//31 43//31
f 44//32 45//32 46//32
f 40//33 43//33 47//33
f 48//34 49//34 50//34
f 51//35 44//35 52//35
f 53//36 41//36 54//36
f 55//37 38//37 48//37
f 56//38 35//38 49//38
f 51//39 35//40 57//41
f 55//42 41//42 58//42
f 52//43 49//43 51//43
f 46//44 43//44 42//44
f 41//45 39//45 58//45
f 35//46 45//46 57//46
f 37//47 46//47 45//47
f 54//48 52//48 53//48
f 56//49 38//49 59//49
f 53//50 44//50 60//50
f 54//51 48//51 50//51
f 37//52 40//52 47//52
f 44//53 42//53 60//53
f 38//54 36//54 59//54
f 14//55 6//55 5//55
f 29//56 30//56 13//56
f 15//57 29//57 13//57
f 30//58 14//58 13//58
f 31//59 32//59 16//59
f 32//60 17//60 16//60
f 18//61 31//61 16//61
f 17//62 24//63 25//64
f 1//65 33//65 2//65
f 4//66 28//66 5//66
f 7//67 34//67 8//67
f 10//68 27//68 11//68
f 19//69 27//69 10//69
f 21//70 34//70 7//70
f 23//71 28//71 4//71
f 25//72 33//72 1//72
f 19//73 26//73 1//73
f 23//74 22//74 7//74
f 19//75 20//75 31//75
f 31//76 18//76 19//76
f 8//77 12//78 29//79
f 29//79 15//80 8//77
f 7//81 9//81 5//81
f 1//82 3//82 11//82
f 12//83 11//18 29//17
f 11//84 3//84 30//84
f 20//85 21//85 31//85
f 21//21 22//86 32//22
f 25//87 24//87 4//87
f 21//88 20//88 10//88
f 32//89 22//89 23//89
f 23//90 24//90 17//90
f 30//91 3//91 2//91
f 2//92 6//92 14//92
f 10//93 12//93 8//93
f 4//94 6//94 2//94
f 35//95 59//95 36//95
f 38//96 58//97 39//98
f 41//99 60//99 42//99
f 44//100 57//100 45//100
f 40//101 39//101 43//101
f 48//102 56//102 49//102
f 51//103 57//103 44//103
f 53//104 60//104 41//104
f 55//105 58//97 38//96
f 56//106 59//106 35//106
f 51//39 49//107 35//40
f 55//108 54//108 41//108
f 52//109 50//109 49//109
f 46//110 47//110 43//110
f 41//111 43//111 39//111
f 35//112 37//112 45//112
f 37//113 47//113 46//113
f 54//114 50//114 52//114
f 56//115 48//115 38//115
f 53//116 52//116 44//116
f 54//117 55//117 48//117
f 37//118 36//118 40//118
f 44//119 46//119 42//119
f 38//120 40//120 36//120
f 9//121 15//121 5//121
f 15//122 14//122 5//122
f 26//123 18//124 25//64
f 18//124 17//62 25//64
