# Blender v2.91.0 OBJ File: 'untitled (2).blend'
# www.blender.org
o Cube
v 0.201978 1.994932 -0.193342
v 0.201978 -0.005068 -0.193342
v 0.201978 1.994932 0.193342
v 0.201978 -0.005068 0.193342
v -0.201978 1.994932 -0.193342
v -0.201978 -0.005068 -0.193342
v -0.201978 1.994932 0.193342
v -0.201978 -0.005068 0.193342
vn 0.0000 1.0000 0.0000
vn 0.0000 0.0000 1.0000
vn -1.0000 0.0000 0.0000
vn 0.0000 -1.0000 0.0000
vn 1.0000 0.0000 0.0000
vn 0.0000 0.0000 -1.0000
s off
f 5//1 3//1 1//1
f 3//2 8//2 4//2
f 7//3 6//3 8//3
f 2//4 8//4 6//4
f 1//5 4//5 2//5
f 5//6 2//6 6//6
f 5//1 7//1 3//1
f 3//2 7//2 8//2
f 7//3 5//3 6//3
f 2//4 4//4 8//4
f 1//5 3//5 4//5
f 5//6 1//6 2//6
o Cube.001
v 1.886259 2.127107 -2.018367
v 1.886259 1.923972 -2.018367
v 1.886259 2.127107 2.018367
v 1.886259 1.923972 2.018367
v -1.886259 2.127107 -2.018367
v -1.886259 1.923972 -2.018367
v -1.886259 2.127107 2.018367
v -1.886259 1.923972 2.018367
vn 0.0000 1.0000 0.0000
vn 0.0000 0.0000 1.0000
vn -1.0000 0.0000 0.0000
vn 0.0000 -1.0000 0.0000
vn 1.0000 0.0000 0.0000
vn 0.0000 0.0000 -1.0000
s off
f 13//7 11//7 9//7
f 11//8 16//8 12//8
f 15//9 14//9 16//9
f 10//10 16//10 14//10
f 9//11 12//11 10//11
f 13//12 10//12 14//12
f 13//7 15//7 11//7
f 11//8 15//8 16//8
f 15//9 13//9 14//9
f 10//10 12//10 16//10
f 9//11 11//11 12//11
f 13//12 9//12 10//12
o Cube.002
v 0.765298 0.117083 -0.772760
v 0.765298 -0.086052 -0.772760
v 0.765298 0.117083 0.772760
v 0.765298 -0.086052 0.772760
v -0.765298 0.117083 -0.772760
v -0.765298 -0.086052 -0.772760
v -0.765298 0.117083 0.772760
v -0.765298 -0.086052 0.772760
vn 0.0000 1.0000 0.0000
vn 0.0000 0.0000 1.0000
vn -1.0000 0.0000 0.0000
vn 0.0000 -1.0000 0.0000
vn 1.0000 0.0000 0.0000
vn 0.0000 0.0000 -1.0000
s off
f 21//13 19//13 17//13
f 19//14 24//14 20//14
f 23//15 22//15 24//15
f 18//16 24//16 22//16
f 17//17 20//17 18//17
f 21//18 18//18 22//18
f 21//13 23//13 19//13
f 19//14 23//14 24//14
f 23//15 21//15 22//15
f 18//16 20//16 24//16
f 17//17 19//17 20//17
f 21//18 17//18 18//18
